<?xml version="1.0" encoding="UTF-8"?>
<svg width="36px" height="36px" viewBox="0 0 36 36" version="1.1" xmlns="http://www.w3.org/2000/svg" xmlns:xlink="http://www.w3.org/1999/xlink">
    <!-- Generator: Sketch 49.3 (51167) - http://www.bohemiancoding.com/sketch -->
    <title>icon_social_IN</title>
    <desc>Created with Sketch.</desc>
    <defs></defs>
    <g id="Design" stroke="none" stroke-width="1" fill="none" fill-rule="evenodd">
        <g id="HP-footer-b_D_v1" transform="translate(-794.000000, -907.000000)" fill="#FFFFFF">
            <g id="_Footer" transform="translate(0.000000, 576.000000)">
                <g id="icons" transform="translate(610.000000, 331.000000)">
                    <path d="M202,36 C192.058875,36 184,27.9411255 184,18 C184,8.0588745 192.058875,0 202,0 C211.941125,0 220,8.0588745 220,18 C220,27.9411255 211.941125,36 202,36 Z M194.226889,7.85466667 C192.895852,7.85466667 191.819926,8.9337037 191.819926,10.2637037 C191.819926,11.5921481 192.895852,12.6711852 194.226889,12.6711852 C195.554296,12.6711852 196.633333,11.5921481 196.633333,10.2637037 C196.633333,8.9337037 195.554296,7.85466667 194.226889,7.85466667 Z M192.149704,27.8591111 L196.304074,27.8591111 L196.304074,14.4968889 L192.149704,14.4968889 L192.149704,27.8591111 Z M198.908593,14.4968889 L198.908593,27.8591111 L203.059852,27.8591111 L203.059852,21.2495556 C203.059852,19.5068148 203.38963,17.8174815 205.550815,17.8174815 C207.681407,17.8174815 207.708889,19.8106667 207.708889,21.3605185 L207.708889,27.8591111 L211.860148,27.8591111 L211.860148,20.5303704 C211.860148,16.9323704 211.083926,14.1655556 206.878222,14.1655556 C204.858074,14.1655556 203.503185,15.2731111 202.948889,16.3241481 L202.891852,16.3241481 L202.891852,14.4968889 L198.908593,14.4968889 Z" id="icon_social_IN"></path>
                </g>
            </g>
        </g>
    </g>
</svg>