<?xml version="1.0" encoding="UTF-8"?>
<svg width="36px" height="36px" viewBox="0 0 36 36" version="1.1" xmlns="http://www.w3.org/2000/svg" xmlns:xlink="http://www.w3.org/1999/xlink">
    <!-- Generator: Sketch 49.3 (51167) - http://www.bohemiancoding.com/sketch -->
    <title>icon_social_twitter</title>
    <desc>Created with Sketch.</desc>
    <defs></defs>
    <g id="Design" stroke="none" stroke-width="1" fill="none" fill-rule="evenodd">
        <g id="HP-footer-b_D_v1" transform="translate(-702.000000, -907.000000)" fill="#FFFFFF">
            <g id="_Footer" transform="translate(0.000000, 576.000000)">
                <g id="icons" transform="translate(610.000000, 331.000000)">
                    <path d="M109.99995,35.9999 C100.058001,35.9999 92,27.9408592 92,17.99995 C92,8.05904075 100.058001,0 109.99995,0 C119.941899,0 127.9999,8.05904075 127.9999,17.99995 C127.9999,27.9408592 119.941899,35.9999 109.99995,35.9999 Z M106.230177,28 C114.91128,28 119.658026,20.6899744 119.658026,14.3527379 C119.658026,14.1451468 119.658026,13.9362122 119.644805,13.7299648 C120.567582,13.0500874 121.366087,12.2123334 122,11.2469343 C121.139359,11.6352438 120.226498,11.8898619 119.288518,12.0020551 C120.272769,11.404811 121.009139,10.4615819 121.362782,9.34972708 C120.435379,9.90733403 119.424026,10.3030334 118.367064,10.5146553 C116.581664,8.5798264 113.591234,8.48711585 111.691479,10.3030334 C110.465958,11.4753516 109.944417,13.2254313 110.326484,14.8895185 C106.532921,14.694692 102.994511,12.8740717 100.598333,9.87777415 C99.3483546,12.0705803 99.9842506,14.8700359 102.060497,16.2815205 C101.310907,16.2593505 100.573215,16.0524313 99.9181492,15.6822609 L99.9181492,15.7433962 C99.9181492,18.028241 101.502601,19.9906144 103.706423,20.4440899 C103.010375,20.6389165 102.281276,20.6644454 101.573991,20.5267232 C102.1927,22.4790194 103.964219,23.8186197 105.984279,23.8582568 C104.007185,25.4383671 101.494669,26.1518353 99,25.8441437 C101.154907,27.2509256 103.669407,28 106.230177,27.9959691 L106.230177,28 Z" id="icon_social_twitter"></path>
                </g>
            </g>
        </g>
    </g>
</svg>