<?xml version="1.0" encoding="UTF-8"?>
<svg width="36px" height="36px" viewBox="0 0 36 36" version="1.1" xmlns="http://www.w3.org/2000/svg" xmlns:xlink="http://www.w3.org/1999/xlink">
    <!-- Generator: Sketch 49.3 (51167) - http://www.bohemiancoding.com/sketch -->
    <title>icon_social_YT</title>
    <desc>Created with Sketch.</desc>
    <defs></defs>
    <g id="Design" stroke="none" stroke-width="1" fill="none" fill-rule="evenodd">
        <g id="HP-footer-b_D_v1" transform="translate(-748.000000, -907.000000)" fill="#FFFFFF">
            <g id="_Footer" transform="translate(0.000000, 576.000000)">
                <g id="icons" transform="translate(610.000000, 331.000000)">
                    <path d="M156.0004,36.00005 C146.058451,36.00005 138.00045,27.9410092 138.00045,18.0001 C138.00045,8.05919075 146.058451,0.00015 156.0004,0.00015 C165.942349,0.00015 174.00035,8.05919075 174.00035,18.0001 C174.00035,27.9410092 165.942349,36.00005 156.0004,36.00005 Z M165.508197,13.1872941 C165.275243,12.3226248 164.601036,11.6483846 163.739344,11.4183529 C162.185246,11 155.957377,11 155.957377,11 C155.957377,11 149.727869,11 148.177049,11.4183529 C147.318163,11.6503233 146.647277,12.3243658 146.416393,13.1872941 C146,14.7470588 146,18.0032941 146,18.0032941 C146,18.0032941 146,21.2595294 146.416393,22.8192941 C146.647277,23.6822225 147.318163,24.3562649 148.177049,24.5882353 C149.729508,25 155.957377,25 155.957377,25 C155.957377,25 162.186885,25 163.739344,24.5816471 C164.599377,24.3527959 165.273222,23.6814266 165.508197,22.8192941 C165.922951,21.2595294 165.922951,18.0032941 165.922951,18.0032941 C165.922951,18.0032941 165.914754,14.7470588 165.508197,13.1872941 Z M153.965574,21.0042353 L153.965574,15.0023529 L159.140984,18.0032941 L153.965574,21.0042353 Z" id="icon_social_YT"></path>
                </g>
            </g>
        </g>
    </g>
</svg>