<?xml version="1.0" encoding="UTF-8"?>
<svg width="14px" height="19px" viewBox="0 0 14 19" version="1.1" xmlns="http://www.w3.org/2000/svg" xmlns:xlink="http://www.w3.org/1999/xlink">
    <!-- Generator: Sketch 55.2 (78181) - https://sketchapp.com -->
    <title>Map-Pin-Icon@1x</title>
    <desc>Created with Sketch.</desc>
    <g id="v4" stroke="none" stroke-width="1" fill="none" fill-rule="evenodd">
        <g id="Kumon-Student-2019-Scheduler-Updates-Kumon-com-v4-FINAL" transform="translate(-975.000000, -26.000000)" fill-rule="nonzero">
            <g id="Header" transform="translate(0.000000, 13.000000)">
                <g id="Attend-Find-Phone" transform="translate(816.000000, 12.000000)">
                    <g id="Map-Pin-Icon" transform="translate(159.000000, 1.000000)">
                        <path d="M6.8,1 C8.52093617,0.957471035 10.1789939,1.647661 11.3614378,2.89876302 C12.5438818,4.14986503 13.1394902,5.84419917 13,7.56 C12.8159958,8.96460153 12.3681332,10.3217611 11.68,11.56 C10.5251314,13.7184194 9.11866687,15.7324497 7.49,17.56 C7.09,18.03 6.93,18.03 6.49,17.56 C4.61382492,15.464736 3.05400218,13.1064727 1.86,10.56 C1.38496234,9.56014647 1.09365701,8.48299421 1,7.38 C0.89735838,5.85051746 1.40019718,4.34200106 2.4,3.18 C3.47506495,1.84207306 5.08424756,1.04479622 6.8,1 Z M6.57,1.76 C5.0799352,1.85837556 3.711835,2.61761615 2.84,3.83 C1.63470854,5.41069229 1.38561587,7.52223164 2.19,9.34 C3.33011147,12.0975961 4.92192661,14.6458522 6.9,16.88 C7.04,17.05 7.09,16.94 7.17,16.88 C8.19550331,15.6486471 9.14078596,14.3526412 10,13 C11.0233996,11.5155146 11.7625687,9.85407945 12.18,8.1 C12.84,4.82 10.38,1.78 6.57,1.76 Z" id="Shape" stroke="#1B98D2" stroke-width="0.5" fill="#1B98D2"></path>
                        <path d="M3.82,7 C3.83627528,5.25052028 5.25052028,3.83627528 7,3.82 C8.70060143,3.91502937 10.0309051,5.32174553 10.0309051,7.025 C10.0309051,8.72825447 8.70060143,10.1349706 7,10.23 C6.14871806,10.2273984 5.33378909,9.8846495 4.73655261,9.27802251 C4.13931613,8.67139552 3.80932159,7.85121894 3.82,7 L3.82,7 Z M4.58,7 C4.56379136,7.99712871 5.15358977,8.90457961 6.07140307,9.29464005 C6.98921636,9.68470048 8.05186943,9.47952306 8.75849751,8.77581493 C9.4651256,8.07210679 9.67470146,7.01031243 9.28844482,6.09089186 C8.90218818,5.17147128 7.99718728,4.57792038 7,4.59 C5.6740617,4.60606201 4.60155228,5.67413957 4.58,7 L4.58,7 Z" id="Shape" stroke="#1B98D2" stroke-width="0.5" fill="#1B98D2"></path>
                        <path d="M4.58,7 C4.59666814,5.64705285 5.70692508,4.56376529 7.05987306,4.58036581 C8.41282104,4.59696634 9.49616409,5.70716914 9.47963119,7.06011794 C9.46309828,8.41306675 8.35294963,9.49646529 7,9.48 C6.3493559,9.47475446 5.72775654,9.20985412 5.27333456,8.74416547 C4.81891257,8.27847682 4.56931221,7.65057746 4.58,7 Z" id="Path" fill="#FFFFFF"></path>
                    </g>
                </g>
            </g>
        </g>
    </g>
</svg>